<?xml version="1.0" encoding="UTF-8"?>
<svg xmlns="http://www.w3.org/2000/svg" viewBox="-293.0 -724.5 7915.5 784.5">
  <defs><mask id="slot">
    <rect x="-293.0" y="-724.5" width="7915.5" height="784.5" fill="#fff"/>
    <polygon points="2937.3,-724.5 3425.1,-724.5 3258.3,60.0 2770.5,60.0" fill="#000"/>
  </mask></defs>
  <g fill="#fafafa" mask="url(#slot)">
    <path d="M204.0 0.0 325.0 -529.0H542.0L557.0 -281.0H561.0L662.0 -529.0H879.0L815.0 0.0H643.0L670.0 -215.0H665.0L575.0 0.0H443.0L428.0 -215.0H423.0L375.0 0.0ZM281.0 -484.0 -138.0 -529.0H292.0ZM259.0 -388.0 -161.0 -433.0H269.0ZM236.0 -292.0 -184.0 -337.0H247.0ZM216.0 -196.0 -207.0 -241.0H226.0ZM193.0 -100.0 -230.0 -145.0H204.0ZM171.0 -3.0 -253.0 -48.0H181.0Z"/>
    <path d="M1229.7 12.0Q1182.7 12.0 1134.2 7.0Q1085.7 2.0 1038.7 -11.0L1087.7 -159.0Q1165.7 -137.0 1237.7 -137.0Q1255.7 -137.0 1272.2 -137.5Q1288.7 -138.0 1306.7 -140.0L1311.7 -172.0L1248.7 -179.0Q1165.7 -188.0 1132.7 -218.0Q1099.7 -248.0 1099.7 -300.0Q1099.7 -311.0 1101.2 -324.0Q1102.7 -337.0 1104.7 -350.0Q1117.7 -422.0 1144.2 -463.0Q1170.7 -504.0 1219.2 -521.5Q1267.7 -539.0 1346.7 -539.0Q1441.7 -539.0 1525.7 -518.0L1477.7 -372.0Q1442.7 -380.0 1413.7 -384.0Q1384.7 -388.0 1350.7 -388.0Q1331.7 -388.0 1319.7 -387.5Q1307.7 -387.0 1290.7 -385.0L1285.7 -356.0L1335.7 -350.0Q1423.7 -340.0 1460.2 -305.0Q1496.7 -270.0 1496.7 -217.0Q1496.7 -208.0 1495.7 -198.0Q1494.7 -188.0 1492.7 -178.0Q1480.7 -109.0 1454.7 -70.0Q1428.7 -31.0 1392.7 -13.5Q1356.7 4.0 1314.7 8.0Q1272.7 12.0 1229.7 12.0ZM1122.7 -487.0 732.7 -529.0H1163.7Q1151.7 -520.0 1141.2 -510.0Q1130.7 -500.0 1122.7 -487.0ZM1081.7 -388.0 663.7 -433.0H1094.7Q1090.7 -423.0 1087.7 -411.5Q1084.7 -400.0 1081.7 -388.0ZM1069.7 -292.0 645.7 -337.0H1071.7Q1070.7 -328.0 1070.2 -318.5Q1069.7 -309.0 1069.7 -300.0ZM1107.7 -196.0 684.7 -241.0H1078.7Q1087.7 -215.0 1107.7 -196.0ZM1036.7 -101.0 619.7 -145.0H1050.7ZM1004.7 -3.0 586.7 -48.0H1018.7Z"/>
    <path d="M1670.5 0.0 1762.5 -529.0H2016.5Q2071.5 -529.0 2103.0 -511.0Q2134.5 -493.0 2148.0 -462.5Q2161.5 -432.0 2161.5 -392.0Q2161.5 -369.0 2156.5 -335.0Q2151.5 -301.0 2139.0 -264.5Q2126.5 -228.0 2104.0 -196.0Q2081.5 -164.0 2045.5 -144.0Q2009.5 -124.0 1957.5 -124.0H1860.5L1838.5 0.0ZM1722.5 -484.0 1298.5 -529.0H1729.5ZM1705.5 -388.0 1281.5 -433.0H1713.5ZM1884.5 -259.0H1915.5Q1935.5 -259.0 1949.5 -264.0Q1963.5 -269.0 1967.5 -288.0L1979.5 -356.0Q1979.5 -358.0 1980.0 -359.5Q1980.5 -361.0 1980.5 -362.0Q1980.5 -376.0 1967.5 -379.5Q1954.5 -383.0 1937.5 -383.0H1905.5ZM1688.5 -292.0 1264.5 -337.0H1696.5ZM1671.5 -196.0 1247.5 -241.0H1679.5ZM1654.5 -100.0 1230.5 -145.0H1662.5ZM1637.5 -3.0 1213.5 -48.0H1645.5Z"/>
    <path d="M2289.2 0.0 2381.2 -529.0H2635.2Q2691.2 -529.0 2722.7 -512.0Q2754.2 -495.0 2767.7 -465.0Q2781.2 -435.0 2781.2 -397.0Q2781.2 -367.0 2772.7 -324.0Q2764.2 -281.0 2741.7 -240.5Q2719.2 -200.0 2676.2 -176.0L2733.2 0.0H2546.2L2508.2 -154.0H2484.2L2457.2 0.0ZM2341.2 -484.0 1917.2 -529.0H2348.2ZM2324.2 -388.0 1900.2 -433.0H2332.2ZM2508.2 -291.0H2540.2Q2560.2 -291.0 2574.7 -296.5Q2589.2 -302.0 2592.2 -321.0L2598.2 -356.0Q2598.2 -358.0 2598.7 -359.5Q2599.2 -361.0 2599.2 -362.0Q2599.2 -376.0 2584.7 -379.5Q2570.2 -383.0 2546.2 -383.0H2524.2ZM2307.2 -292.0 1883.2 -337.0H2315.2ZM2290.2 -196.0 1866.2 -241.0H2298.2ZM2273.2 -100.0 1849.2 -145.0H2281.2ZM2256.2 -3.0 1832.2 -48.0H2264.2Z"/>
    <path d="M3568.0 0.0 3634.0 -379.0H3523.0L3550.0 -529.0H3945.0L3918.0 -379.0H3810.0L3744.0 0.0ZM3510.0 -484.0 3086.0 -529.0H3517.0ZM3493.0 -388.0 3069.0 -433.0H3501.0ZM3589.0 -292.0 3165.0 -337.0H3597.0ZM3572.0 -196.0 3148.0 -241.0H3580.0ZM3555.0 -100.0 3131.0 -145.0H3563.0ZM3538.0 -3.0 3114.0 -48.0H3546.0Z"/>
    <path d="M4041.8 0.0 4133.8 -529.0H4485.8L4438.8 -379.0H4275.8L4263.8 -311.0H4413.8L4396.8 -215.0H4247.8L4235.8 -147.0H4420.8L4394.8 0.0ZM4093.8 -484.0 3669.8 -529.0H4100.8ZM4076.8 -388.0 3652.8 -433.0H4084.8ZM4059.8 -292.0 3635.8 -337.0H4067.8ZM4042.8 -196.0 3618.8 -241.0H4050.8ZM4025.8 -100.0 3601.8 -145.0H4033.8ZM4008.8 -3.0 3584.8 -48.0H4016.8Z"/>
    <path d="M4829.5 12.0Q4720.5 12.0 4677.0 -30.5Q4633.5 -73.0 4633.5 -158.0Q4633.5 -181.0 4636.5 -208.0Q4639.5 -235.0 4644.5 -264.0Q4660.5 -356.0 4691.5 -417.0Q4722.5 -478.0 4778.5 -508.5Q4834.5 -539.0 4926.5 -539.0Q5036.5 -539.0 5081.5 -496.5Q5126.5 -454.0 5126.5 -368.0Q5126.5 -346.0 5123.5 -319.5Q5120.5 -293.0 5115.5 -264.0Q5099.5 -173.0 5068.5 -111.5Q5037.5 -50.0 4980.5 -19.0Q4923.5 12.0 4829.5 12.0ZM4709.5 -496.0 4402.5 -529.0H4750.5Q4726.5 -515.0 4709.5 -496.0ZM4646.5 -393.0 4268.5 -433.0H4663.5Q4659.5 -423.0 4655.0 -413.5Q4650.5 -404.0 4646.5 -393.0ZM4799.5 -140.0H4858.5Q4884.5 -140.0 4901.0 -146.0Q4917.5 -152.0 4921.5 -178.0L4959.5 -387.0H4898.5Q4874.5 -387.0 4857.5 -381.0Q4840.5 -375.0 4836.5 -350.0ZM4619.5 -295.0 4228.5 -337.0H4628.5ZM4604.5 -199.0 4210.5 -241.0H4609.5Q4608.5 -230.0 4607.0 -219.5Q4605.5 -209.0 4604.5 -199.0ZM4607.5 -103.0 4214.5 -145.0H4603.5Q4603.5 -134.0 4605.0 -123.5Q4606.5 -113.0 4607.5 -103.0ZM4650.5 -11.0 4301.5 -48.0H4624.5Q4629.5 -38.0 4636.0 -28.5Q4642.5 -19.0 4650.5 -11.0Z"/>
    <path d="M5304.3 0.0 5425.3 -529.0H5642.3L5657.3 -281.0H5661.3L5762.3 -529.0H5979.3L5915.3 0.0H5743.3L5770.3 -215.0H5765.3L5675.3 0.0H5543.3L5528.3 -215.0H5523.3L5475.3 0.0ZM5381.3 -484.0 4962.3 -529.0H5392.3ZM5359.3 -388.0 4939.3 -433.0H5369.3ZM5336.3 -292.0 4916.3 -337.0H5347.3ZM5316.3 -196.0 4893.3 -241.0H5326.3ZM5293.3 -100.0 4870.3 -145.0H5304.3ZM5271.3 -3.0 4847.3 -48.0H5281.3Z"/>
    <path d="M6129.0 0.0 6221.0 -529.0H6397.0L6304.0 0.0ZM6181.0 -484.0 5757.0 -529.0H6188.0ZM6164.0 -388.0 5740.0 -433.0H6172.0ZM6147.0 -292.0 5723.0 -337.0H6155.0ZM6130.0 -196.0 5706.0 -241.0H6138.0ZM6113.0 -100.0 5689.0 -145.0H6121.0ZM6096.0 -3.0 5672.0 -48.0H6104.0Z"/>
    <path d="M6737.8 12.0Q6627.8 12.0 6583.8 -30.0Q6539.8 -72.0 6539.8 -156.0Q6539.8 -179.0 6543.3 -206.5Q6546.8 -234.0 6551.8 -264.0Q6567.8 -356.0 6597.8 -417.0Q6627.8 -478.0 6684.3 -508.5Q6740.8 -539.0 6834.8 -539.0Q6853.8 -539.0 6880.3 -537.0Q6906.8 -535.0 6930.8 -530.0Q6954.8 -525.0 6967.8 -517.0L6916.8 -378.0Q6889.8 -386.0 6863.3 -389.0Q6836.8 -392.0 6821.8 -392.0Q6786.8 -392.0 6769.3 -385.5Q6751.8 -379.0 6747.8 -358.0L6708.8 -144.0Q6724.8 -140.0 6737.8 -139.5Q6750.8 -139.0 6763.8 -139.0Q6795.8 -139.0 6830.3 -145.0Q6864.8 -151.0 6892.8 -161.0L6876.8 -11.0Q6845.8 2.0 6812.3 7.0Q6778.8 12.0 6737.8 12.0ZM6616.8 -496.0 6309.8 -529.0H6657.8Q6633.8 -515.0 6616.8 -496.0ZM6553.8 -393.0 6175.8 -433.0H6570.8Q6566.8 -423.0 6562.3 -413.5Q6557.8 -404.0 6553.8 -393.0ZM6526.8 -295.0 6135.8 -337.0H6535.8ZM6511.8 -199.0 6117.8 -241.0H6516.8Q6515.8 -230.0 6514.3 -219.5Q6512.8 -209.0 6511.8 -199.0ZM6514.8 -103.0 6121.8 -145.0H6510.8Q6510.8 -134.0 6512.3 -123.5Q6513.8 -113.0 6514.8 -103.0ZM6557.8 -11.0 6208.8 -48.0H6531.8Q6536.8 -38.0 6543.3 -28.5Q6549.8 -19.0 6557.8 -11.0Z"/>
    <path d="M7286.5 12.0Q7239.5 12.0 7191.0 7.0Q7142.5 2.0 7095.5 -11.0L7144.5 -159.0Q7222.5 -137.0 7294.5 -137.0Q7312.5 -137.0 7329.0 -137.5Q7345.5 -138.0 7363.5 -140.0L7368.5 -172.0L7305.5 -179.0Q7222.5 -188.0 7189.5 -218.0Q7156.5 -248.0 7156.5 -300.0Q7156.5 -311.0 7158.0 -324.0Q7159.5 -337.0 7161.5 -350.0Q7174.5 -422.0 7201.0 -463.0Q7227.5 -504.0 7276.0 -521.5Q7324.5 -539.0 7403.5 -539.0Q7498.5 -539.0 7582.5 -518.0L7534.5 -372.0Q7499.5 -380.0 7470.5 -384.0Q7441.5 -388.0 7407.5 -388.0Q7388.5 -388.0 7376.5 -387.5Q7364.5 -387.0 7347.5 -385.0L7342.5 -356.0L7392.5 -350.0Q7480.5 -340.0 7517.0 -305.0Q7553.5 -270.0 7553.5 -217.0Q7553.5 -208.0 7552.5 -198.0Q7551.5 -188.0 7549.5 -178.0Q7537.5 -109.0 7511.5 -70.0Q7485.5 -31.0 7449.5 -13.5Q7413.5 4.0 7371.5 8.0Q7329.5 12.0 7286.5 12.0ZM7179.5 -487.0 6789.5 -529.0H7220.5Q7208.5 -520.0 7198.0 -510.0Q7187.5 -500.0 7179.5 -487.0ZM7138.5 -388.0 6720.5 -433.0H7151.5Q7147.5 -423.0 7144.5 -411.5Q7141.5 -400.0 7138.5 -388.0ZM7126.5 -292.0 6702.5 -337.0H7128.5Q7127.5 -328.0 7127.0 -318.5Q7126.5 -309.0 7126.5 -300.0ZM7164.5 -196.0 6741.5 -241.0H7135.5Q7144.5 -215.0 7164.5 -196.0ZM7093.5 -101.0 6676.5 -145.0H7107.5ZM7061.5 -3.0 6643.5 -48.0H7075.5Z"/>
  </g>
  <g>
    <path fill="#22ae63" d="M3236.0 -371.5V-360.4C3235.8 -360.4 3235.6 -360.3 3235.3 -360.3C3233.4 -361.8 3231.5 -363.4 3229.7 -364.9C3217.2 -375.4 3204.0 -384.8 3189.3 -392.1C3186.8 -393.4 3184.3 -394.9 3181.5 -395.5C3181.3 -395.9 3180.9 -396.0 3180.5 -396.1C3175.0 -398.4 3169.3 -400.2 3163.5 -401.6C3150.9 -404.5 3138.2 -404.8 3125.5 -402.2C3109.1 -399.0 3094.5 -391.8 3080.8 -382.5C3067.2 -373.3 3055.0 -362.5 3043.5 -350.9C3041.4 -348.8 3041.4 -348.8 3040.1 -351.4C3034.0 -364.2 3027.3 -376.6 3018.8 -387.9C3012.4 -396.6 3005.2 -404.6 2995.9 -410.3C2986.5 -416.1 2976.5 -418.2 2965.6 -415.5C2952.3 -412.3 2941.6 -404.6 2931.5 -395.8C2925.3 -391.0 2919.8 -385.5 2914.1 -380.3C2909.0 -375.6 2903.9 -370.9 2898.5 -366.4C2897.6 -365.5 2897.0 -365.5 2896.2 -366.5C2891.0 -371.9 2885.5 -376.8 2878.8 -380.4C2869.2 -385.6 2859.3 -386.2 2849.1 -382.9C2840.5 -380.1 2832.9 -375.4 2825.3 -370.7C2822.3 -368.8 2819.5 -366.6 2816.2 -365.1V-365.9C2816.7 -366.4 2816.5 -367.1 2816.6 -367.7C2817.0 -381.4 2818.2 -395.1 2820.3 -408.7C2823.3 -427.4 2828.0 -445.6 2836.3 -462.7C2842.6 -475.5 2850.7 -486.9 2861.3 -496.5C2875.3 -509.1 2891.7 -517.0 2909.6 -522.2C2929.0 -527.8 2948.9 -530.1 2968.9 -531.2C2976.9 -531.6 2984.8 -531.8 2992.8 -532.1C2996.6 -530.5 3000.7 -529.6 3004.7 -528.3C3010.5 -526.5 3016.3 -524.7 3022.2 -522.9C3025.1 -521.8 3028.1 -520.7 3031.0 -519.7C3042.5 -515.5 3053.5 -510.4 3063.2 -502.8C3065.7 -500.9 3068.2 -498.8 3070.6 -496.7C3070.1 -498.5 3069.5 -500.2 3068.8 -501.9C3064.6 -513.2 3058.1 -522.7 3047.5 -529.1C3043.2 -531.7 3038.5 -533.8 3034.1 -536.3C3034.5 -536.4 3035.0 -536.4 3035.4 -536.5C3049.4 -538.8 3063.5 -540.2 3077.6 -540.8C3089.8 -541.2 3102.0 -541.1 3114.1 -539.8C3128.3 -538.3 3142.2 -535.5 3155.6 -530.6C3175.5 -523.2 3192.4 -511.7 3205.5 -495.0C3216.9 -480.4 3224.2 -463.8 3228.9 -445.9C3233.5 -428.2 3235.5 -410.2 3236.0 -391.9C3236.0 -385.1 3236.0 -378.3 3236.0 -371.5"/>
    <path fill="#22ae63" d="M3132.3 -103.4C3140.1 -106.5 3147.5 -110.4 3154.7 -114.6C3163.3 -119.7 3171.5 -125.4 3179.5 -131.4C3186.2 -136.5 3192.8 -141.7 3199.2 -147.2C3202.9 -150.4 3206.7 -153.4 3210.4 -156.6C3211.2 -157.2 3211.2 -156.9 3211.4 -156.2C3212.7 -151.1 3213.7 -145.9 3214.7 -140.8C3216.1 -133.8 3217.2 -126.7 3218.0 -119.6C3218.9 -111.4 3219.2 -103.2 3218.7 -95.0C3218.1 -84.7 3216.3 -74.6 3212.7 -64.9C3210.6 -59.1 3207.7 -53.6 3204.4 -48.3C3200.1 -41.6 3195.0 -35.5 3189.1 -30.1C3181.9 -23.6 3173.9 -18.1 3165.4 -13.4C3153.9 -7.1 3141.6 -2.4 3129.1 1.4C3117.1 5.1 3104.8 7.7 3092.5 9.8C3089.1 10.4 3085.8 11.0 3082.3 10.9C3075.1 10.7 3068.2 9.1 3061.5 6.5C3051.3 2.6 3042.2 -3.6 3032.3 -8.2C3026.9 -10.7 3021.3 -12.6 3015.3 -13.0C3007.5 -13.5 3001.0 -10.8 2995.4 -5.6C2991.3 -1.7 2987.3 2.5 2983.2 6.5C2976.3 13.2 2968.3 17.8 2958.7 19.3C2952.4 20.4 2946.0 20.1 2939.6 19.2C2930.8 17.9 2922.2 15.9 2913.7 13.1C2901.3 9.2 2889.8 3.5 2879.5 -4.5C2869.7 -12.0 2861.7 -21.1 2855.4 -31.8C2849.1 -42.5 2845.2 -54.1 2842.5 -66.1C2841.3 -71.4 2840.6 -76.8 2840.1 -82.2C2839.3 -89.8 2838.8 -97.3 2839.0 -105.0C2839.3 -115.6 2840.1 -126.3 2841.8 -137.2C2843.0 -136.0 2844.2 -135.0 2845.3 -134.0C2852.2 -127.7 2859.7 -122.2 2867.7 -117.5C2876.8 -112.1 2886.4 -108.0 2896.6 -105.2C2903.5 -103.4 2910.5 -102.3 2917.6 -101.7C2923.5 -101.2 2929.4 -101.1 2935.3 -101.5C2942.2 -101.9 2949.1 -102.4 2955.8 -104.3C2956.7 -104.4 2957.6 -104.4 2958.4 -104.6C2964.6 -105.9 2970.7 -107.3 2976.8 -109.1C2983.8 -111.1 2990.7 -113.4 2997.5 -116.0C3004.2 -118.4 3010.7 -121.1 3017.2 -123.9C3019.1 -124.8 3020.3 -124.4 3021.8 -123.2C3032.6 -114.9 3044.2 -107.7 3057.0 -102.7C3071.1 -97.1 3085.6 -94.5 3100.7 -95.7C3111.7 -96.6 3122.2 -99.3 3132.3 -103.4"/>
    <path fill="#ecdc86" d="M3132.3 -103.4C3122.2 -99.3 3111.7 -96.6 3100.7 -95.7C3085.6 -94.5 3071.1 -97.1 3057.0 -102.7C3044.2 -107.7 3032.6 -114.9 3021.8 -123.2C3020.3 -124.4 3019.1 -124.8 3017.2 -123.9C3010.7 -121.1 3004.2 -118.4 2997.5 -116.0C2990.7 -113.4 2983.8 -111.1 2976.8 -109.1C2970.7 -107.3 2964.6 -105.9 2958.4 -104.6C2957.6 -104.4 2956.7 -104.4 2955.8 -104.3C2958.0 -106.7 2960.1 -109.2 2962.3 -111.7C2970.9 -121.7 2977.0 -133.1 2980.6 -145.9C2985.5 -163.3 2990.6 -180.6 2994.7 -198.3C2997.7 -211.3 3000.3 -224.3 3002.1 -237.5C3003.4 -247.0 3004.2 -256.5 3004.7 -266.0C3005.2 -274.8 3005.1 -283.6 3004.6 -292.3C3002.9 -318.7 2997.1 -344.2 2986.4 -368.4C2980.0 -382.9 2969.0 -392.9 2953.3 -396.9C2946.5 -398.7 2939.8 -398.2 2933.1 -396.1C2932.6 -395.9 2932.1 -395.6 2931.5 -395.8C2941.6 -404.6 2952.3 -412.3 2965.6 -415.5C2976.4 -418.2 2986.5 -416.1 2995.9 -410.3C3005.2 -404.6 3012.4 -396.6 3018.8 -387.9C3027.2 -376.5 3034.0 -364.2 3040.1 -351.4C3041.4 -348.8 3041.4 -348.8 3043.5 -350.9C3055.0 -362.5 3067.2 -373.3 3080.8 -382.5C3094.5 -391.8 3109.1 -398.9 3125.5 -402.2C3138.2 -404.8 3150.8 -404.5 3163.5 -401.6C3169.3 -400.2 3174.9 -398.4 3180.5 -396.1C3180.9 -396.0 3181.3 -395.9 3181.5 -395.4C3165.3 -395.1 3151.3 -388.9 3138.5 -379.4C3132.3 -374.8 3126.8 -369.5 3122.6 -363.1C3119.1 -357.7 3116.2 -352.0 3113.5 -346.2C3107.9 -334.4 3103.3 -322.2 3100.0 -309.6C3097.2 -298.7 3095.4 -287.8 3094.5 -276.6C3093.8 -268.0 3093.6 -259.4 3093.9 -250.7C3094.3 -240.2 3095.3 -229.6 3096.7 -219.1C3099.0 -201.4 3102.1 -183.9 3104.9 -166.4C3106.5 -156.7 3107.9 -146.9 3109.4 -137.2C3111.7 -123.1 3119.5 -112.5 3130.9 -104.4C3131.4 -104.0 3131.9 -103.7 3132.3 -103.4"/>
    <path fill="#3f2b29" d="M3109.5 -684.5 3123.3 -684.5C3134.6 -684.0 3145.5 -682.1 3156.2 -678.5C3164.4 -675.7 3166.2 -670.3 3161.3 -663.2C3157.7 -658.1 3152.8 -654.4 3147.8 -651.0C3141.2 -646.6 3134.1 -643.0 3126.6 -640.2C3118.8 -637.3 3111.4 -640.1 3106.6 -647.9C3105.2 -650.3 3104.0 -652.9 3103.2 -655.7C3103.0 -656.5 3102.6 -656.9 3101.8 -657.0C3084.4 -660.1 3069.1 -656.1 3056.3 -643.8C3045.8 -633.8 3039.6 -621.3 3035.3 -607.7C3031.4 -595.4 3029.5 -582.8 3028.8 -570.0C3028.3 -558.6 3029.1 -547.3 3030.8 -536.0C3031.2 -534.1 3031.6 -532.2 3031.8 -530.2C3032.1 -527.8 3031.4 -525.7 3029.3 -524.3C3027.1 -522.7 3024.6 -523.0 3022.2 -522.9C3016.4 -524.7 3010.5 -526.5 3004.7 -528.3C3004.7 -529.7 3004.7 -531.0 3004.6 -532.4C3004.7 -538.4 3004.7 -544.5 3005.1 -550.5C3006.4 -574.3 3010.0 -597.7 3019.2 -619.9C3026.1 -636.5 3035.8 -651.0 3049.7 -662.4C3061.1 -671.9 3074.2 -678.1 3088.5 -681.5C3095.4 -683.2 3102.4 -684.2 3109.5 -684.5"/>
    <path fill="#386e35" d="M3022.1 -522.9C3024.6 -523.0 3027.1 -522.7 3029.3 -524.3C3031.3 -525.7 3032.1 -527.8 3031.8 -530.2C3031.6 -532.2 3031.1 -534.1 3030.8 -536.0C3031.9 -536.1 3033.0 -536.2 3034.1 -536.3C3038.5 -533.8 3043.1 -531.7 3047.5 -529.1C3058.1 -522.7 3064.6 -513.2 3068.8 -501.9C3069.5 -500.2 3070.1 -498.5 3070.6 -496.7C3068.2 -498.8 3065.7 -500.9 3063.2 -502.8C3053.5 -510.4 3042.5 -515.5 3031.0 -519.7C3028.1 -520.7 3025.1 -521.8 3022.1 -522.9"/>
    <path fill="#386e35" d="M3004.6 -532.4C3004.7 -531.0 3004.7 -529.6 3004.7 -528.3C3000.8 -529.6 2996.7 -530.5 2992.8 -532.1C2996.7 -532.2 3000.7 -532.3 3004.6 -532.4"/>
  </g>
</svg>
